<?xml version="1.0" encoding="UTF-8"?>
<svg id="Layer_1" data-name="Layer 1" xmlns="http://www.w3.org/2000/svg" viewBox="0 0 471.58 471.58">
  <defs>
    <style>
      .cls-1 {
        fill: #fff;
      }

      .cls-2 {
        fill: #829bb5;
      }

      .cls-3 {
        fill: #1c3665;
      }
    </style>
  </defs>
  <polygon class="cls-1" points="151.01 65.78 213.42 128.2 338.25 128.2 338.25 253.03 400.67 315.45 400.67 65.78 151.01 65.78"/>
  <polygon class="cls-2" points="213.42 128.2 338.25 253.03 338.25 128.2 213.42 128.2"/>
  <g>
    <path class="cls-1" d="m70.67,405.79v-138.23h30.59v112.55h62.15v25.68h-92.74Z"/>
    <path class="cls-1" d="m178.3,405.79v-138.23h64.32c15.55,0,27.38,3.79,35.49,11.37,8.1,7.58,12.16,17.91,12.16,30.98s-4.06,23.08-12.16,30.78c-8.11,7.71-19.93,11.57-35.49,11.57h-33.73v53.53h-30.59,0Zm30.59-77.45h30.19c7.32,0,12.74-1.6,16.28-4.8,3.53-3.2,5.29-7.81,5.29-13.82s-1.76-10.42-5.29-13.63c-3.53-3.2-8.96-4.81-16.28-4.81h-30.19v37.06Z"/>
  </g>
  <g>
    <path class="cls-3" d="m422.98,0H48.6C21.87,0,0,21.87,0,48.6v374.38c0,26.73,21.87,48.6,48.6,48.6h374.38c26.73,0,48.6-21.87,48.6-48.6V48.6c0-26.73-21.87-48.6-48.6-48.6ZM163.41,405.79h-92.74v-138.23h30.59v112.55h62.15v25.68h0Zm114.7-65.1c-8.11,7.71-19.93,11.57-35.49,11.57h-33.73v53.53h-30.59v-138.23h64.32c15.55,0,27.38,3.79,35.49,11.37,8.1,7.58,12.16,17.91,12.16,30.98s-4.06,23.08-12.16,30.78Zm122.56-25.25l-62.42-62.42-124.83-124.83-62.42-62.42h249.66v249.66h0Z"/>
    <path class="cls-3" d="m239.09,291.28h-30.19v37.06h30.19c7.32,0,12.74-1.6,16.28-4.8,3.53-3.2,5.29-7.81,5.29-13.82s-1.76-10.42-5.29-13.63c-3.53-3.2-8.96-4.81-16.28-4.81h0Z"/>
  </g>
</svg>